<svg xmlns="http://www.w3.org/2000/svg" width="18" height="18" fill="none"><path fill="#018374" fill-rule="evenodd" d="M18 9A9 9 0 1 1 0 9a9 9 0 0 1 18 0Z" clip-rule="evenodd"/><path fill="#fff" fill-rule="evenodd" d="M10.176 10.943c.053.295.33.497.63.497h.943l.546-.077c-.874 1.283-2.393 1.873-4.053 1.613-1.352-.212-2.513-1.127-3.003-2.404-1.112-2.899 1.006-5.667 3.765-5.667 1.438 0 2.7.864 3.423 1.88a.613.613 0 0 0 .849.164.603.603 0 0 0 .181-.8A5.28 5.28 0 0 0 8.64 3.722c-2.632.177-4.761 2.33-4.913 4.963-.175 3.064 2.255 5.566 5.278 5.566 1.588 0 3.01-.692 3.978-1.81l-.115.641v.58c0 .299.202.576.496.63a.61.61 0 0 0 .724-.6V10.22h-3.311a.61.61 0 0 0-.6.723Z" clip-rule="evenodd"/></svg>