<svg xmlns="http://www.w3.org/2000/svg" width="22" height="22" fill="none"><path fill="#018374" fill-rule="evenodd" d="M12.866 4.5a1 1 0 0 0-1.366.366l-1.253 2.17 4.33 2.5 1.253-2.17A1 1 0 0 0 15.464 6l-2.598-1.5zm.96 6.338-4.33-2.5-3.248 5.625a2 2 0 0 0-.268.966l-.065 3.735a.5.5 0 0 0 .758.438l3.202-1.924a2 2 0 0 0 .703-.715l3.248-5.625z" clip-rule="evenodd"/><mask id="b" width="11" height="16" x="5" y="4" maskUnits="userSpaceOnUse" style="mask-type:alpha"><path fill="#018374" d="M12.867 4.5a1 1 0 0 0-1.366.366l-1.253 2.17 4.33 2.5 1.253-2.17A1 1 0 0 0 15.465 6l-2.598-1.5zm.959 6.338-4.33-2.5-3.248 5.626a2 2 0 0 0-.267.965l-.065 3.735a.5.5 0 0 0 .757.438l3.203-1.924a2 2 0 0 0 .702-.714l3.248-5.626z"/></mask><g filter="url(#a)" mask="url(#b)" opacity=".9"><path fill="#00FFCE" d="m12.944 2.366 4.33 2.5-6.598 11.427L4.5 22l1.846-8.207 6.598-11.427z"/><path stroke="#018374" d="m13.127 3.049 3.464 2-6.31 10.928-4.94 4.566 1.476-6.566 6.31-10.928z"/></g><path fill="#018374" d="M8.692 4.881A2.4 2.4 0 0 0 6.908 6.65l-.012.046c-.098.407-.68.406-.778-.001L6.11 6.66a2.4 2.4 0 0 0-1.78-1.772l-.023-.006c-.41-.097-.41-.678 0-.776l.024-.005A2.4 2.4 0 0 0 6.11 2.329l.005-.023c.098-.408.681-.408.78 0l.005.023a2.4 2.4 0 0 0 1.78 1.773l.013.003c.41.098.41.68-.001.776zm9 13a2.4 2.4 0 0 0-1.784 1.768l-.011.046c-.1.407-.681.407-.78-.001l-.007-.033a2.4 2.4 0 0 0-1.78-1.772l-.023-.006c-.41-.097-.41-.678 0-.776l.024-.005a2.4 2.4 0 0 0 1.779-1.773l.005-.023c.098-.408.681-.408.78 0l.005.023a2.4 2.4 0 0 0 1.78 1.773l.013.003c.41.098.41.68-.001.776z"/><defs><filter id="a" width="24.774" height="31.634" x="-1.5" y="-3.634" color-interpolation-filters="sRGB" filterUnits="userSpaceOnUse"><feFlood flood-opacity="0" result="BackgroundImageFix"/><feBlend in="SourceGraphic" in2="BackgroundImageFix" result="shape"/><feGaussianBlur result="effect1_foregroundBlur_5345_15747" stdDeviation="3"/></filter></defs></svg>